<svg width="20" height="21" viewBox="0 0 20 21" fill="none" xmlns="http://www.w3.org/2000/svg">
<path fill-rule="evenodd" clip-rule="evenodd" d="M9.99996 18.8334C5.39996 18.8334 1.66663 15.1084 1.66663 10.5001C1.66663 5.90008 5.39996 2.16675 9.99996 2.16675C14.6083 2.16675 18.3333 5.90008 18.3333 10.5001C18.3333 15.1084 14.6083 18.8334 9.99996 18.8334ZM12.6583 13.5917C12.7583 13.6501 12.8666 13.6834 12.9833 13.6834C13.1916 13.6834 13.4 13.5751 13.5166 13.3751C13.6916 13.0834 13.6 12.7001 13.3 12.5167L10.3333 10.7501V6.90008C10.3333 6.55008 10.05 6.27508 9.70829 6.27508C9.36663 6.27508 9.08329 6.55008 9.08329 6.90008V11.1084C9.08329 11.3251 9.19996 11.5251 9.39163 11.6417L12.6583 13.5917Z" fill="#7499F9"/>
</svg>
