<svg width="20" height="21" viewBox="0 0 20 21" fill="none" xmlns="http://www.w3.org/2000/svg">
<path fill-rule="evenodd" clip-rule="evenodd" d="M13.6757 2.80719L13.6766 3.43187C15.9721 3.61178 17.4885 5.176 17.4909 7.5748L17.5 14.5963C17.5033 17.2116 15.8602 18.8208 13.2265 18.825L6.79324 18.8333C4.17599 18.8367 2.51235 17.1891 2.50906 14.5663L2.50001 7.62727C2.49671 5.21265 3.95961 3.6526 6.25514 3.44187L6.25432 2.81718C6.2535 2.4507 6.52501 2.175 6.88703 2.175C7.24905 2.17417 7.52057 2.44903 7.52139 2.81552L7.52221 3.39856L12.4095 3.39189L12.4087 2.80885C12.4078 2.44237 12.6794 2.16751 13.0414 2.16667C13.3952 2.16584 13.6749 2.4407 13.6757 2.80719ZM3.7679 7.88464L16.2247 7.86798V7.57646C16.1893 5.78569 15.2908 4.84616 13.6782 4.70623L13.679 5.34758C13.679 5.70573 13.4001 5.98976 13.0463 5.98976C12.6843 5.99059 12.412 5.7074 12.412 5.34925L12.4111 4.67458L7.52386 4.68125L7.52468 5.35508C7.52468 5.71406 7.25399 5.99726 6.89197 5.99726C6.52995 5.99809 6.25761 5.71573 6.25761 5.35674L6.25679 4.7154C4.65238 4.87615 3.76461 5.81901 3.76708 7.62561L3.7679 7.88464ZM12.6999 11.6702V11.6794C12.7082 12.0626 13.0208 12.3532 13.4001 12.3449C13.7704 12.3357 14.0657 12.0184 14.0575 11.6353C14.0402 11.2688 13.7432 10.9698 13.3738 10.9706C12.9953 10.9789 12.6991 11.2871 12.6999 11.6702ZM13.3795 15.41C13.0011 15.4017 12.6958 15.086 12.695 14.7029C12.6868 14.3198 12.9904 14.0024 13.3688 13.9932H13.3771C13.7638 13.9932 14.0772 14.3089 14.0772 14.7004C14.0781 15.0919 13.7654 15.4092 13.3795 15.41ZM9.3101 11.6836C9.32655 12.0667 9.64003 12.3657 10.0185 12.3491C10.3888 12.3316 10.6841 12.0151 10.6677 11.6319C10.6586 11.2571 10.3542 10.9656 9.98395 10.9664C9.60547 10.9831 9.30928 11.3004 9.3101 11.6836ZM10.0218 15.3726C9.64332 15.3892 9.33067 15.0902 9.31339 14.7071C9.31339 14.3239 9.60877 14.0074 9.98724 13.9899C10.3575 13.9891 10.6627 14.2806 10.671 14.6546C10.6882 15.0386 10.392 15.3551 10.0218 15.3726ZM5.92027 11.7127C5.93673 12.0959 6.2502 12.3957 6.62868 12.3782C6.99893 12.3616 7.2943 12.0442 7.27703 11.6611C7.2688 11.2863 6.96437 10.9948 6.5933 10.9956C6.21483 11.0122 5.91945 11.3296 5.92027 11.7127ZM6.63197 15.3767C6.2535 15.3942 5.94084 15.0944 5.92356 14.7112C5.92274 14.3281 6.21894 14.0107 6.59741 13.9941C6.96766 13.9932 7.27291 14.2848 7.28114 14.6596C7.29842 15.0427 7.00304 15.3601 6.63197 15.3767Z" fill="#7499FA"/>
</svg>
