<svg width="14" height="14" viewBox="0 0 14 14" fill="none" xmlns="http://www.w3.org/2000/svg">
<path d="M11.8833 5.31213C11.8833 5.31213 11.5213 9.80213 11.3113 11.6935C11.2113 12.5968 10.6533 13.1261 9.73927 13.1428C7.99994 13.1741 6.25861 13.1761 4.51994 13.1395C3.64061 13.1215 3.09194 12.5855 2.99394 11.6981C2.78261 9.79013 2.42261 5.31213 2.42261 5.31213" stroke="#999999" stroke-width="1.5" stroke-linecap="round" stroke-linejoin="round"/>
<path d="M12.8056 3.1598H1.50024" stroke="#999999" stroke-width="1.5" stroke-linecap="round" stroke-linejoin="round"/>
<path d="M10.6271 3.1598C10.1038 3.1598 9.65313 2.7898 9.55047 2.27713L9.38847 1.46647C9.28847 1.09247 8.9498 0.833801 8.5638 0.833801H5.7418C5.3558 0.833801 5.01713 1.09247 4.91713 1.46647L4.75513 2.27713C4.65247 2.7898 4.2018 3.1598 3.67847 3.1598" stroke="#999999" stroke-width="1.5" stroke-linecap="round" stroke-linejoin="round"/>
</svg>
