<svg width="20" height="21" viewBox="0 0 20 21" fill="none" xmlns="http://www.w3.org/2000/svg">
<path fill-rule="evenodd" clip-rule="evenodd" d="M2.91663 9.09814C2.91663 5.26491 6.11986 2.16667 9.9945 2.16667C13.8801 2.16667 17.0833 5.26491 17.0833 9.09814C17.0833 11.0297 16.3808 12.823 15.2245 14.343C13.949 16.0196 12.3768 17.4804 10.6071 18.627C10.2021 18.892 9.83652 18.912 9.392 18.627C7.61224 17.4804 6.04003 16.0196 4.77538 14.343C3.61828 12.823 2.91663 11.0297 2.91663 9.09814ZM7.66182 9.31396C7.66182 10.5981 8.70967 11.6081 9.9945 11.6081C11.2802 11.6081 12.3381 10.5981 12.3381 9.31396C12.3381 8.03983 11.2802 6.9807 9.9945 6.9807C8.70967 6.9807 7.66182 8.03983 7.66182 9.31396Z" fill="#7499FA"/>
</svg>
