<svg width="20" height="21" viewBox="0 0 20 21" fill="none" xmlns="http://www.w3.org/2000/svg">
<path fill-rule="evenodd" clip-rule="evenodd" d="M9.87054 18.5516C6.79402 18.5516 4.16675 18.0728 4.16675 16.1555C4.16675 14.2382 6.77735 12.4683 9.87054 12.4683C12.9471 12.4683 15.5743 14.2211 15.5743 16.1384C15.5743 18.0549 12.9637 18.5516 9.87054 18.5516Z" stroke="#759BFE" stroke-width="1.5" stroke-linecap="round" stroke-linejoin="round"/>
<path fill-rule="evenodd" clip-rule="evenodd" d="M9.86458 9.81136C11.8835 9.81136 13.5199 8.175 13.5199 6.15606C13.5199 4.13712 11.8835 2.5 9.86458 2.5C7.84564 2.5 6.20852 4.13712 6.20852 6.15606C6.2017 8.16818 7.8267 9.80455 9.83882 9.81136C9.84791 9.81136 9.85624 9.81136 9.86458 9.81136Z" stroke="#759BFE" stroke-width="1.5" stroke-linecap="round" stroke-linejoin="round"/>
</svg>
