<svg width="18" height="18" viewBox="0 0 18 18" fill="none" xmlns="http://www.w3.org/2000/svg">
<path fill-rule="evenodd" clip-rule="evenodd" d="M9.00008 17.3334C4.40008 17.3334 0.666748 13.6084 0.666748 9.00008C0.666748 4.40008 4.40008 0.666748 9.00008 0.666748C13.6084 0.666748 17.3334 4.40008 17.3334 9.00008C17.3334 13.6084 13.6084 17.3334 9.00008 17.3334ZM11.6584 12.0917C11.7584 12.1501 11.8667 12.1834 11.9834 12.1834C12.1917 12.1834 12.4001 12.0751 12.5167 11.8751C12.6917 11.5834 12.6001 11.2001 12.3001 11.0167L9.33341 9.25008V5.40008C9.33341 5.05008 9.05008 4.77508 8.70841 4.77508C8.36675 4.77508 8.08341 5.05008 8.08341 5.40008V9.60841C8.08341 9.82508 8.20008 10.0251 8.39175 10.1417L11.6584 12.0917Z" fill="#D3D3D3"/>
</svg>
