<svg width="24" height="25" viewBox="0 0 24 25" fill="none" xmlns="http://www.w3.org/2000/svg">
<path d="M12.4122 11.1749C12.3985 12.2545 13.3744 12.8569 14.1095 13.2152C14.8647 13.5827 15.1184 13.8184 15.1154 14.147C15.1098 14.65 14.513 14.872 13.9545 14.8806C12.9802 14.8957 12.4136 14.6176 11.9633 14.4072L11.6122 16.0496C12.0641 16.2578 12.9008 16.4394 13.7685 16.4474C15.8052 16.4474 17.1377 15.442 17.1449 13.8832C17.1529 11.9049 14.4085 11.7954 14.4273 10.9112C14.4338 10.643 14.6896 10.3569 15.2502 10.2842C15.5277 10.2474 16.2937 10.2193 17.1623 10.6192L17.5031 9.03017C17.0361 8.86011 16.4358 8.69726 15.6884 8.69726C13.7714 8.69726 12.4231 9.71632 12.4122 11.1749ZM20.7786 8.83414C20.4067 8.83414 20.0933 9.05107 19.9534 9.38398L17.044 16.3307H19.0793L19.4842 15.2114H21.9713L22.2062 16.3307H24L22.4347 8.83414H20.7786ZM21.0633 10.8592L21.6506 13.6743H20.0421L21.0633 10.8592ZM9.94462 8.83423L8.34037 16.3306H10.2798L11.8833 8.83404H9.94462V8.83423ZM7.07559 8.83404L5.05697 13.9366L4.24041 9.59811C4.14459 9.11379 3.76622 8.83414 3.34603 8.83414H0.0462187L0 9.05182C0.677437 9.19882 1.44712 9.43592 1.91344 9.68961C2.19881 9.84457 2.28019 9.98004 2.37394 10.3483L3.92053 16.3307H5.97L9.11213 8.83414L7.07559 8.83414" fill="url(#paint0_linear_20_9149)"/>
<defs>
<linearGradient id="paint0_linear_20_9149" x1="11.0338" y1="16.6029" x2="11.2581" y2="8.64336" gradientUnits="userSpaceOnUse">
<stop stop-color="#222357"/>
<stop offset="1" stop-color="#254AA5"/>
</linearGradient>
</defs>
</svg>
