<svg width="26" height="20" viewBox="0 0 26 20" fill="none" xmlns="http://www.w3.org/2000/svg">
<path fill-rule="evenodd" clip-rule="evenodd" d="M25.234 8.17381C25.0648 8.33823 24.8351 8.43218 24.5933 8.43218C23.6987 8.43218 22.9734 9.13682 22.9734 9.99413C22.9734 10.8573 23.6903 11.5584 24.5764 11.5678C25.0757 11.5725 25.5 11.9107 25.5 12.3958V15.4081C25.5 17.9436 23.3844 20 20.7732 20H16.8322C16.4248 20 16.0948 19.6794 16.0948 19.2836V16.7469C16.0948 16.2537 15.6958 15.8661 15.1881 15.8661C14.6925 15.8661 14.2814 16.2537 14.2814 16.7469V19.2836C14.2814 19.6794 13.9514 20 13.5452 20H5.22679C2.62766 20 0.5 17.9448 0.5 15.4081V12.3958C0.5 11.9107 0.924323 11.5725 1.4236 11.5678C2.31093 11.5584 3.0266 10.8573 3.0266 9.99413C3.0266 9.16031 2.32544 8.52613 1.40667 8.52613C1.16489 8.52613 0.935203 8.43218 0.765957 8.26776C0.596712 8.10335 0.5 7.88021 0.5 7.64533V4.60364C0.5 2.07164 2.63249 0 5.23888 0H13.5452C13.9514 0 14.2814 0.320611 14.2814 0.716383V3.72284C14.2814 4.20435 14.6925 4.60364 15.1881 4.60364C15.6958 4.60364 16.0948 4.20435 16.0948 3.72284V0.716383C16.0948 0.320611 16.4248 0 16.8322 0H20.7732C23.3844 0 25.5 2.0552 25.5 4.5919V7.55138C25.5 7.78626 25.4033 8.00939 25.234 8.17381ZM15.1881 13.5878C15.6958 13.5878 16.0948 13.1885 16.0948 12.707V8.00939C16.0948 7.52789 15.6958 7.1286 15.1881 7.1286C14.6925 7.1286 14.2814 7.52789 14.2814 8.00939V12.707C14.2814 13.1885 14.6925 13.5878 15.1881 13.5878Z" fill="white"/>
</svg>
