<svg width="14" height="14" viewBox="0 0 14 14" fill="none" xmlns="http://www.w3.org/2000/svg">
<path fill-rule="evenodd" clip-rule="evenodd" d="M7.00004 13.6667C3.32004 13.6667 0.333374 10.6867 0.333374 7.00007C0.333374 3.32007 3.32004 0.333401 7.00004 0.333401C10.6867 0.333401 13.6667 3.32007 13.6667 7.00007C13.6667 10.6867 10.6867 13.6667 7.00004 13.6667ZM9.12671 9.4734C9.20671 9.52007 9.29337 9.54673 9.38671 9.54673C9.55337 9.54673 9.72004 9.46007 9.81337 9.30007C9.95337 9.06673 9.88004 8.76007 9.64004 8.6134L7.26671 7.20007V4.12007C7.26671 3.84007 7.04004 3.62007 6.76671 3.62007C6.49337 3.62007 6.26671 3.84007 6.26671 4.12007V7.48673C6.26671 7.66007 6.36004 7.82007 6.51337 7.9134L9.12671 9.4734Z" fill="white"/>
</svg>
